<?xml version="1.0" standalone="no"?>
<!DOCTYPE svg PUBLIC "-//W3C//DTD SVG 20010904//EN"
 "http://www.w3.org/TR/2001/REC-SVG-20010904/DTD/svg10.dtd">
<svg version="1.0" xmlns="http://www.w3.org/2000/svg"
 width="600.000000pt" height="645.000000pt" viewBox="0 0 600.000000 645.000000"
 preserveAspectRatio="xMidYMid meet">
<g transform="translate(0.000000,645.000000) scale(0.100000,-0.100000)"
fill="#ffffff" stroke="#ffffff" stroke-width="70" stroke-linejoin="round" stroke-linecap="round">
<path d="M2800 6259 c-69 -33 -178 -85 -242 -115 -64 -29 -214 -101 -334 -159
-119 -58 -218 -105 -219 -105 -2 0 -105 -49 -230 -110 -125 -60 -228 -110
-230 -110 -2 0 -70 -32 -151 -71 -82 -39 -243 -116 -359 -171 -477 -228 -552
-266 -558 -282 -14 -37 17 -58 256 -175 133 -65 252 -121 265 -125 22 -7 22
-9 22 -216 l0 -208 -26 -17 c-30 -20 -64 -88 -64 -130 0 -39 33 -110 56 -123
21 -12 18 -42 -30 -287 -34 -173 -54 -395 -38 -429 15 -34 65 -46 187 -46 116
0 170 12 186 42 17 32 5 197 -27 363 -14 77 -34 185 -44 240 l-17 100 33 37
c59 66 58 147 -3 217 l-36 43 1 131 c1 73 -2 150 -7 172 -5 22 -9 33 -10 25
-2 -14 -3 -310 -2 -337 1 -7 10 -21 22 -32 16 -15 19 -23 10 -38 -7 -15 -7
-20 4 -20 7 0 11 6 8 14 -3 9 0 11 10 7 14 -5 18 -25 19 -105 1 -30 -26 -70
-62 -93 -14 -8 -19 -16 -12 -16 6 0 12 -12 12 -27 0 -31 26 -180 35 -203 3 -9
7 -33 8 -55 1 -22 6 -45 10 -52 4 -6 7 -24 7 -40 0 -15 6 -75 13 -132 15 -116
13 -179 -8 -200 -16 -16 -199 -28 -259 -17 -71 13 -74 29 -50 226 25 205 47
329 58 323 5 -4 7 0 3 9 -3 9 1 38 9 65 8 26 13 57 10 67 -3 11 0 29 6 40 6
12 7 18 3 14 -4 -4 -14 0 -22 10 -8 9 -11 11 -7 3 5 -10 3 -12 -5 -7 -7 5 -10
14 -7 22 3 8 0 11 -8 8 -18 -7 -35 57 -29 107 4 29 9 37 15 27 7 -9 8 -8 4 6
-7 21 11 49 25 40 5 -3 8 0 7 8 -2 7 5 12 14 12 16 -1 17 18 17 232 -1 183 -3
232 -13 228 -7 -3 -19 2 -26 11 -7 8 -17 15 -22 15 -15 0 -151 70 -172 88 -11
10 -16 11 -12 4 7 -11 4 -11 -13 -1 -14 9 -17 16 -9 20 7 4 16 5 22 2 5 -3 6
-1 2 5 -5 9 -13 9 -27 2 -11 -6 -25 -8 -32 -3 -6 4 -20 8 -29 8 -10 1 -26 9
-37 19 -11 10 -26 18 -33 20 -8 1 -40 15 -71 31 -55 29 -75 53 -62 75 12 20
82 49 106 44 22 -4 22 -4 4 6 -18 9 -17 10 7 7 15 -2 25 -1 23 3 -5 8 48 34
61 30 4 -1 10 2 13 7 12 19 205 104 223 100 15 -4 17 -3 8 8 -10 11 -8 13 9
10 12 -2 21 0 21 5 0 18 88 59 137 62 7 1 10 5 7 9 -6 11 33 22 47 13 7 -4 9
-3 6 2 -5 9 259 143 403 205 30 13 57 27 58 32 2 4 8 5 13 1 5 -3 9 0 9 5 0 6
6 11 14 11 8 0 31 9 50 21 19 11 41 17 47 13 7 -4 9 -3 6 3 -4 6 0 14 9 17 22
9 26 8 18 -6 -4 -7 -3 -8 5 -4 6 4 9 11 7 14 -2 4 17 16 42 26 26 11 54 25 62
32 8 7 39 22 69 34 30 11 74 32 98 47 24 14 47 23 50 19 3 -3 12 -1 19 5 9 7
19 7 33 0 11 -6 23 -11 28 -11 4 1 -3 7 -16 14 l-24 14 22 11 c12 7 26 9 31 6
6 -4 9 -1 8 7 -2 7 3 12 10 10 6 -1 12 2 12 8 0 5 7 6 17 3 11 -4 14 -3 9 5
-4 7 -1 12 9 12 9 0 29 7 43 15 15 8 67 33 116 56 49 22 116 54 149 70 68 33
71 34 61 17 -4 -7 -3 -8 5 -4 6 4 9 11 7 15 -3 4 18 19 46 34 42 23 53 25 66
15 12 -10 14 -10 8 -1 -9 17 110 73 161 77 45 3 95 -12 87 -26 -4 -6 2 -8 16
-3 14 4 20 3 16 -3 -3 -5 0 -10 7 -9 30 1 47 -4 47 -14 0 -5 -5 -7 -12 -3 -6
4 -8 3 -5 -3 3 -5 20 -8 37 -5 18 2 30 0 30 -7 0 -6 3 -10 8 -10 19 3 33 -2
27 -10 -3 -5 0 -13 6 -17 8 -4 9 -3 5 4 -9 15 -4 15 26 -1 14 -7 23 -19 21
-27 -4 -13 -3 -13 7 0 9 11 13 12 17 3 2 -7 9 -13 14 -13 15 0 124 -52 127
-61 2 -4 10 -5 18 -2 10 3 12 0 8 -10 -3 -8 0 -18 6 -22 6 -3 10 -3 9 2 -4 21
3 23 23 9 12 -9 30 -16 39 -16 9 0 22 -7 29 -15 7 -8 21 -15 31 -15 11 0 19
-3 19 -8 0 -4 9 -13 21 -20 12 -8 18 -9 14 -3 -10 18 6 13 54 -17 25 -16 65
-35 88 -42 23 -7 41 -16 38 -19 -2 -4 6 -8 17 -8 11 -1 28 -9 37 -17 10 -9 25
-16 34 -16 9 0 17 -4 17 -9 0 -5 14 -11 31 -15 28 -5 30 -8 18 -23 -13 -15
-12 -15 7 -3 19 12 26 10 60 -11 21 -13 43 -24 49 -24 24 -1 55 -17 49 -26 -3
-5 -2 -8 3 -7 13 4 93 -34 93 -44 0 -5 4 -7 8 -4 5 3 38 -10 74 -29 37 -18 69
-31 72 -28 3 4 6 1 6 -5 0 -6 7 -9 17 -5 11 4 14 3 9 -6 -5 -8 -3 -11 5 -10
21 4 60 -11 54 -21 -3 -4 3 -14 13 -21 16 -13 16 -13 2 5 -8 11 -10 17 -5 14
6 -2 25 -10 43 -17 26 -10 31 -16 20 -23 -10 -7 -9 -8 5 -4 10 3 25 1 35 -4
39 -22 293 -140 301 -140 18 0 60 -27 54 -34 -4 -4 1 -4 11 0 12 5 17 4 13 -3
-3 -5 -1 -10 6 -10 17 0 191 -84 195 -94 2 -5 12 -9 22 -9 26 0 110 -46 102
-56 -4 -4 -1 -4 6 0 17 10 54 -3 46 -16 -4 -7 -2 -8 5 -4 16 11 83 -22 75 -36
-4 -6 -3 -8 3 -5 6 4 13 -2 16 -13 4 -15 -2 -24 -23 -35 -16 -8 -37 -15 -46
-15 -10 0 -15 -3 -11 -6 8 -9 -63 -45 -74 -38 -5 3 -9 1 -9 -4 0 -11 -127 -75
-149 -75 -8 0 -23 -9 -33 -19 -11 -11 -26 -17 -34 -14 -8 3 -13 2 -10 -3 3 -5
-18 -19 -47 -31 -28 -12 -64 -31 -78 -41 -14 -10 -29 -16 -33 -12 -3 3 -6 2
-6 -4 0 -5 -6 -10 -12 -10 -7 0 -42 -17 -77 -37 -36 -20 -70 -35 -78 -32 -7 3
-13 2 -13 -3 0 -16 -166 -92 -186 -85 -15 5 -16 4 -5 -4 12 -9 10 -12 -12 -17
-15 -4 -27 -11 -27 -17 0 -5 -4 -7 -9 -4 -5 4 -11 1 -13 -6 -3 -7 -21 -12 -41
-12 -20 0 -32 -3 -26 -7 11 -7 -5 -22 -26 -25 -5 0 -16 -2 -23 -2 -6 -1 -11
-5 -11 -9 1 -5 1 -12 0 -18 -1 -5 -2 -113 -2 -238 l1 -229 -44 44 c-28 28 -39
46 -32 51 6 5 0 5 -13 2 -14 -5 -21 -3 -17 3 5 9 -19 37 -33 37 -3 0 -5 4 -3
8 1 5 -1 6 -6 4 -4 -3 -19 4 -32 15 -14 11 -18 16 -10 12 13 -7 13 -5 2 9 -8
9 -10 22 -6 28 5 8 3 9 -5 5 -7 -5 -10 -14 -7 -22 8 -21 -9 -17 -42 11 -17 14
-36 25 -43 25 -11 0 -11 3 1 11 13 9 12 10 -2 5 -16 -5 -75 18 -203 79 -27 13
-66 28 -85 34 -87 25 -147 42 -170 46 -14 3 -40 8 -57 11 -19 4 -30 11 -26 17
3 6 1 7 -5 3 -6 -4 -64 0 -129 8 -213 27 -246 29 -433 28 -189 -1 -244 -5
-385 -23 -82 -11 -235 -41 -293 -58 -18 -5 -36 -10 -40 -11 -25 -3 -94 -24
-135 -41 -26 -11 -53 -17 -59 -13 -7 5 -8 3 -3 -6 6 -10 4 -12 -11 -6 -10 4
-15 4 -11 0 9 -9 -52 -36 -64 -28 -5 3 -9 0 -9 -6 0 -7 -7 -9 -16 -6 -8 3 -12
2 -9 -4 6 -9 -10 -14 -42 -13 -7 1 -11 -3 -8 -7 3 -5 -5 -12 -17 -15 -13 -4
-44 -21 -70 -37 -26 -16 -52 -27 -58 -23 -6 3 -7 0 -4 -10 5 -11 2 -14 -12 -8
-10 4 -15 2 -11 -3 3 -6 -8 -18 -24 -28 -25 -15 -33 -15 -47 -5 -15 11 -15 11
1 -6 16 -18 16 -20 -2 -30 -11 -5 -40 -30 -66 -54 l-46 -43 3 276 3 276 -42
20 c-24 11 -48 20 -55 20 -9 0 -8 4 2 11 13 9 12 10 -2 5 -21 -6 -141 48 -130
59 4 4 -4 4 -17 0 -16 -5 -21 -4 -17 4 5 7 1 9 -8 5 -9 -3 -16 -1 -16 5 0 6
-7 8 -16 4 -21 -8 -6 -21 58 -48 29 -13 92 -40 141 -61 l88 -37 -1 -286 c0
-157 0 -289 0 -293 0 -4 24 18 52 49 82 86 171 148 323 224 214 106 414 167
685 206 196 28 626 25 820 -5 153 -24 296 -57 401 -93 88 -29 276 -120 346
-166 69 -45 210 -177 218 -204 19 -58 25 3 25 244 l1 262 277 134 c152 73 403
197 557 275 273 138 280 142 283 173 3 32 3 32 -133 97 -75 37 -138 66 -140
66 -2 0 -62 27 -132 61 -70 33 -195 92 -278 131 -227 106 -241 112 -520 243
-1215 569 -1271 595 -1316 595 -33 0 -74 -15 -169 -61z"/>
<path d="M3525 6030 c-3 -6 1 -7 9 -4 18 7 21 14 7 14 -6 0 -13 -4 -16 -10z"/>
<path d="M3545 6010 c-3 -5 -1 -10 4 -10 6 0 11 5 11 10 0 6 -2 10 -4 10 -3 0
-8 -4 -11 -10z"/>
<path d="M3606 5982 c-2 -4 4 -8 14 -8 10 0 16 4 14 8 -3 4 -9 8 -14 8 -5 0
-11 -4 -14 -8z"/>
<path d="M3960 5830 c-9 -6 -10 -10 -3 -10 6 0 15 5 18 10 8 12 4 12 -15 0z"/>
<path d="M1880 5760 c-9 -6 -10 -10 -3 -10 6 0 15 5 18 10 8 12 4 12 -15 0z"/>
<path d="M4403 5607 c0 -7 11 -13 24 -13 27 -2 27 -1 -3 14 -15 8 -21 8 -21
-1z"/>
<path d="M2757 5393 c-4 -3 -19 -8 -34 -9 -26 -3 -115 -21 -208 -42 -56 -13
-152 -41 -202 -59 -23 -8 -49 -13 -58 -9 -9 3 -13 2 -10 -4 3 -6 -2 -10 -12
-10 -11 0 -24 -5 -29 -10 -6 -6 -24 -12 -41 -13 -17 -1 -29 -6 -25 -11 3 -5
-2 -6 -12 -3 -9 4 -15 3 -11 -2 7 -13 -14 -19 -55 -15 -35 3 -35 3 -5 -5 25
-7 26 -9 7 -10 -12 0 -30 -5 -40 -11 -19 -11 -90 -39 -97 -39 -8 0 -145 -72
-188 -98 -21 -13 -43 -21 -49 -17 -6 4 -8 3 -4 -4 7 -11 -26 -26 -59 -27 -11
0 -19 -6 -18 -12 2 -7 -11 -20 -27 -28 -17 -9 -30 -19 -30 -24 0 -5 -13 -14
-30 -21 -36 -15 -39 -24 -39 -127 0 -45 -2 -87 -5 -92 -4 -5 -2 -12 3 -15 15
-10 21 22 21 113 l0 88 38 26 c269 184 656 346 1007 422 249 55 237 55 421 0
169 -51 200 -65 144 -65 -59 0 -329 -38 -435 -60 -364 -79 -676 -197 -945
-359 -75 -45 -192 -132 -185 -139 5 -6 85 50 85 59 0 5 7 9 15 9 7 0 18 6 22
13 12 18 52 39 64 32 5 -4 8 -1 7 5 -4 17 237 141 259 134 13 -4 14 -3 5 3 -9
7 0 13 30 23 24 8 58 22 76 32 18 10 39 15 45 12 7 -4 8 -3 4 2 -5 5 19 16 55
25 35 10 88 27 118 38 30 12 80 27 110 35 30 8 90 24 132 35 73 20 161 36 253
46 22 2 57 7 79 11 21 3 53 7 70 8 97 8 157 20 171 36 14 16 14 18 -12 29 -79
31 -332 109 -364 111 -3 0 -9 -3 -12 -7z"/>
<path d="M2598 5213 c7 -3 16 -2 19 1 4 3 -2 6 -13 5 -11 0 -14 -3 -6 -6z"/>
<path d="M5340 5070 c-9 -6 -10 -10 -3 -10 6 0 15 5 18 10 8 12 4 12 -15 0z"/>
<path d="M5020 4920 c-9 -6 -10 -10 -3 -10 6 0 15 5 18 10 8 12 4 12 -15 0z"/>
<path d="M4987 4899 c7 -7 15 -10 18 -7 3 3 -2 9 -12 12 -14 6 -15 5 -6 -5z"/>
<path d="M1610 4816 c4 -4 16 -4 26 2 16 9 14 10 -8 9 -15 -1 -23 -6 -18 -11z"/>
<path d="M4810 4800 c-9 -6 -10 -10 -3 -10 6 0 15 5 18 10 8 12 4 12 -15 0z"/>
<path d="M4967 4779 c7 -7 15 -10 18 -7 3 3 -2 9 -12 12 -14 6 -15 5 -6 -5z"/>
<path d="M1520 4690 c0 -5 5 -10 11 -10 5 0 7 5 4 10 -3 6 -8 10 -11 10 -2 0
-4 -4 -4 -10z"/>
<path d="M4380 4601 c0 -6 4 -13 10 -16 6 -3 7 1 4 9 -7 18 -14 21 -14 7z"/>
<path d="M2010 4430 c-9 -6 -10 -10 -3 -10 6 0 15 5 18 10 8 12 4 12 -15 0z"/>
<path d="M1126 4393 c-6 -14 -5 -15 5 -6 7 7 10 15 7 18 -3 3 -9 -2 -12 -12z"/>
<path d="M2790 4269 c-585 -48 -974 -204 -1175 -472 -318 -422 -105 -903 536
-1215 189 -92 387 -165 658 -242 l74 -22 106 42 c58 23 180 78 270 121 139 67
163 81 150 93 -8 7 -70 30 -139 51 -416 127 -734 242 -914 332 -145 72 -208
114 -287 193 -95 95 -114 139 -114 270 0 89 3 111 22 146 63 118 186 199 383
249 47 12 87 21 88 19 2 -1 -5 -60 -17 -131 -85 -527 -101 -632 -101 -655 0
-23 11 -30 108 -71 178 -76 263 -108 272 -102 12 7 22 62 75 387 25 157 72
445 105 640 32 194 56 356 52 359 -15 13 -60 15 -152 8z m124 -49 c-2 -14 -4
-42 -6 -63 -1 -21 -6 -41 -10 -43 -5 -3 -6 -9 -4 -13 3 -4 -2 -50 -10 -102 -8
-52 -14 -104 -14 -117 0 -15 -4 -21 -12 -16 -7 5 -9 -1 -6 -20 3 -15 1 -44 -4
-64 -5 -20 -10 -44 -10 -52 0 -8 -5 -20 -10 -27 -5 -7 -7 -17 -4 -22 4 -5 2
-36 -4 -68 -6 -32 -13 -78 -15 -103 -3 -25 -8 -52 -11 -60 -3 -8 -8 -35 -11
-60 -2 -25 -11 -70 -18 -100 -12 -52 -18 -86 -48 -300 -11 -80 -13 -85 -37
-85 -16 0 -24 5 -22 13 1 8 -2 11 -8 7 -13 -8 -110 25 -110 37 0 4 5 8 12 8 6
0 8 3 5 6 -4 4 -14 1 -23 -7 -13 -11 -18 -11 -21 -1 -3 6 -13 12 -24 12 -11 0
-47 14 -79 31 -58 30 -78 58 -42 60 15 1 15 2 0 6 -13 3 -15 10 -8 33 4 16 7
30 4 32 -2 2 6 51 17 108 11 58 27 148 35 200 9 52 20 117 26 144 6 27 12 70
14 95 7 82 12 123 18 128 3 3 -3 14 -14 23 -22 19 -68 15 -150 -15 -25 -9 -56
-18 -69 -21 -13 -3 -32 -9 -43 -15 -10 -5 -24 -7 -30 -3 -7 4 -8 3 -4 -4 4 -6
-5 -17 -21 -26 -44 -23 -133 -92 -127 -99 3 -3 -3 -12 -15 -19 -12 -7 -21 -18
-21 -25 0 -7 -8 -17 -17 -22 -10 -6 -15 -11 -10 -11 4 0 0 -15 -10 -32 -24
-45 -24 -196 0 -252 9 -21 14 -43 10 -50 -3 -6 -3 -8 2 -4 8 7 55 -55 55 -72
0 -6 7 -10 16 -10 8 0 12 -4 9 -10 -3 -5 -2 -10 4 -10 6 0 29 -18 53 -40 49
-47 124 -98 191 -131 26 -13 47 -27 47 -31 0 -4 9 -8 19 -8 11 0 23 -4 26 -10
3 -5 15 -10 25 -10 11 0 30 -5 44 -12 20 -9 23 -14 15 -25 -10 -11 -8 -12 6
-7 14 6 16 4 10 -6 -5 -9 -4 -11 4 -6 6 4 9 12 5 18 -3 5 9 2 27 -7 18 -10 56
-25 83 -35 28 -10 50 -22 49 -28 -1 -5 7 -7 19 -4 16 4 19 2 13 -8 -5 -8 -4
-11 3 -6 6 3 35 -3 64 -14 29 -11 61 -20 71 -20 10 0 16 -4 13 -9 -3 -5 6 -8
20 -8 14 0 35 -5 47 -11 12 -5 42 -15 67 -22 95 -26 175 -53 184 -61 6 -5 19
-9 30 -9 16 0 18 -2 7 -9 -9 -6 -3 -8 20 -6 18 1 61 -8 95 -21 34 -13 64 -21
67 -18 3 3 8 1 12 -5 3 -6 0 -11 -8 -11 -8 0 -20 -7 -27 -15 -7 -8 -16 -13
-20 -10 -5 3 -11 1 -15 -5 -6 -10 -88 -49 -115 -55 -8 -1 -49 -20 -90 -40 -41
-21 -84 -41 -95 -46 -11 -4 -42 -17 -70 -29 -34 -14 -60 -19 -83 -15 -18 3
-31 9 -28 13 2 4 -3 8 -12 8 -9 1 -51 11 -92 23 -41 12 -95 28 -120 35 -33 10
-40 14 -25 18 11 3 2 5 -21 5 -46 1 -88 19 -78 34 4 8 0 8 -12 1 -28 -14 -48
-4 -32 16 11 13 10 14 -7 5 -16 -9 -29 -7 -59 8 -22 10 -45 19 -52 19 -27 0
-356 177 -394 212 -13 13 -37 30 -52 38 -42 23 -134 103 -144 125 -6 11 -15
19 -21 18 -6 -1 -24 17 -39 40 -16 23 -41 57 -56 75 -15 18 -31 44 -34 57 -3
14 -11 25 -16 25 -6 0 -8 6 -5 14 3 8 -1 17 -10 20 -9 4 -13 9 -10 12 3 3 -4
27 -16 52 -17 39 -21 67 -22 157 0 145 2 154 61 283 29 63 41 77 65 74 3 -1 5
11 3 26 -2 22 13 41 87 114 50 49 97 88 105 88 8 0 14 5 14 11 0 6 9 9 20 6
11 -3 18 -2 15 3 -6 10 24 22 36 15 5 -4 6 2 2 11 -4 12 -3 15 5 10 7 -4 12
-3 12 2 0 12 140 85 148 78 3 -3 11 -1 18 5 8 6 21 9 29 5 9 -3 14 -2 11 3 -3
5 2 11 12 14 9 3 34 12 55 21 22 10 36 12 32 7 -8 -15 8 -14 22 0 7 7 22 13
35 15 13 2 75 14 138 28 132 27 344 52 451 52 43 -1 46 -2 43 -26z"/>
<path d="M1810 3926 c0 -2 7 -7 16 -10 8 -3 12 -2 9 4 -6 10 -25 14 -25 6z"/>
<path d="M1664 3818 c-12 -14 -13 -18 -3 -10 9 6 18 10 21 7 2 -3 5 2 5 10 0
19 0 19 -23 -7z"/>
<path d="M2050 3716 c7 -7 13 -7 20 0 6 6 3 10 -10 10 -13 0 -16 -4 -10 -10z"/>
<path d="M2035 3121 c-9 -15 15 -25 28 -12 9 9 7 10 -7 5 -13 -5 -17 -4 -12 4
4 7 5 12 2 12 -3 0 -7 -4 -11 -9z"/>
<path d="M1801 2837 c2 -1 13 -9 24 -17 19 -14 19 -14 6 3 -7 9 -18 17 -24 17
-6 0 -8 -1 -6 -3z"/>
<path d="M1930 2750 c0 -5 5 -10 11 -10 5 0 7 5 4 10 -3 6 -8 10 -11 10 -2 0
-4 -4 -4 -10z"/>
<path d="M2077 2679 c7 -7 15 -10 18 -7 3 3 -2 9 -12 12 -14 6 -15 5 -6 -5z"/>
<path d="M3060 2650 c8 -5 22 -9 30 -9 10 0 8 3 -5 9 -27 12 -43 12 -25 0z"/>
<path d="M2285 2550 c3 -5 8 -10 11 -10 2 0 4 5 4 10 0 6 -5 10 -11 10 -5 0
-7 -4 -4 -10z"/>
<path d="M1797 4039 c7 -7 15 -10 18 -7 3 3 -2 9 -12 12 -14 6 -15 5 -6 -5z"/>
<path d="M1001 3854 c0 -11 3 -14 6 -6 3 7 2 16 -1 19 -3 4 -6 -2 -5 -13z"/>
<path d="M4269 3249 c-10 -5 -20 -28 -24 -56 -34 -241 -360 -505 -978 -795
-185 -87 -264 -121 -462 -200 -55 -22 -122 -49 -150 -60 -119 -47 -338 -144
-429 -190 -447 -224 -726 -520 -812 -863 -47 -189 -27 -194 224 -50 103 59
203 117 222 127 50 28 73 51 157 156 86 108 169 179 308 263 170 103 296 159
670 300 302 113 522 202 539 219 9 9 103 -45 190 -110 145 -106 265 -284 286
-420 39 -261 -187 -515 -541 -609 -150 -39 -219 -46 -459 -46 -342 0 -492 26
-965 165 l-110 32 -125 -73 c-69 -41 -160 -94 -203 -118 -125 -72 -114 -87
133 -184 290 -114 605 -200 885 -243 242 -36 543 -39 735 -6 164 28 261 53
373 98 394 156 675 455 734 779 17 94 12 250 -12 336 -55 205 -192 380 -429
547 -75 53 -102 53 -186 4 -186 -108 -270 -142 -356 -146 -13 -1 -20 -6 -17
-13 7 -17 -9 -17 -26 0 -8 6 -11 7 -8 1 6 -11 -51 -50 -60 -40 -3 3 -17 -4
-31 -14 -13 -11 -31 -20 -38 -20 -7 0 -53 -17 -101 -38 -48 -21 -108 -44 -133
-52 -25 -7 -51 -18 -57 -23 -7 -5 -21 -6 -30 -3 -10 4 -14 4 -10 0 9 -10 -41
-35 -75 -37 -15 -1 -28 -5 -28 -9 0 -4 -10 -10 -22 -13 -45 -13 -203 -77 -250
-101 -26 -13 -48 -22 -48 -18 0 3 -7 -2 -16 -11 -9 -9 -23 -14 -30 -11 -8 3
-14 1 -14 -3 0 -12 -76 -51 -84 -44 -3 4 -6 1 -6 -5 0 -6 -7 -9 -17 -5 -12 5
-14 3 -8 -7 6 -10 4 -12 -9 -7 -10 4 -15 3 -11 -3 3 -6 2 -10 -2 -10 -15 0
-143 -87 -201 -137 -31 -27 -60 -47 -65 -45 -5 1 -6 -2 -3 -7 8 -12 -18 -33
-29 -23 -5 4 -5 1 -1 -5 4 -7 3 -13 -1 -13 -5 0 -15 6 -23 13 -12 10 -12 9 -1
-5 11 -14 9 -21 -8 -39 -12 -13 -21 -27 -21 -31 0 -5 -5 -6 -10 -3 -6 4 -9 3
-8 -2 4 -14 -23 -54 -33 -48 -5 4 -10 1 -10 -4 -1 -6 -2 -15 -3 -20 -1 -14
-26 -37 -26 -26 0 5 -7 0 -15 -12 -10 -14 -21 -20 -32 -16 -10 4 -14 2 -10 -4
3 -5 -11 -20 -32 -31 -43 -25 -56 -27 -45 -10 4 7 3 8 -5 4 -6 -4 -9 -12 -6
-17 4 -5 2 -9 -2 -9 -5 0 -40 -20 -78 -45 -39 -25 -75 -45 -81 -45 -6 0 -24
-11 -40 -25 -16 -14 -35 -23 -41 -20 -7 2 -13 1 -13 -3 0 -17 -71 -43 -88 -32
-13 7 -14 9 -2 10 9 0 11 3 4 10 -12 12 -6 82 7 74 5 -3 6 2 3 11 -4 9 2 37
12 63 10 26 17 50 16 55 -1 4 3 7 9 7 5 0 8 4 4 10 -3 5 1 25 9 44 23 56 117
197 127 190 5 -3 10 0 10 5 1 6 2 15 3 21 0 5 6 14 12 20 20 20 28 -9 8 -31
-14 -16 -15 -22 -4 -32 10 -9 11 -9 5 1 -4 8 0 21 10 32 15 16 15 22 5 35 -7
8 -10 16 -6 16 3 1 10 2 15 3 5 0 13 5 18 10 5 5 3 6 -4 2 -25 -14 -13 11 21
43 19 18 39 30 45 27 7 -5 8 -1 4 10 -5 13 -3 15 8 9 8 -4 11 -5 7 -1 -8 9 61
72 75 68 4 -1 5 3 1 9 -5 8 -2 10 8 6 17 -6 53 25 41 36 -3 4 -1 7 5 7 22 0
27 3 41 22 7 11 19 17 27 14 8 -3 13 0 11 7 -1 7 5 10 13 9 8 -2 12 0 7 4 -7
8 69 56 90 57 7 0 9 5 6 10 -4 6 1 8 11 4 10 -4 15 -3 11 3 -3 5 4 14 15 20
11 6 20 8 20 4 0 -4 8 0 18 8 24 22 229 117 236 110 3 -3 6 0 6 7 0 8 7 10 21
6 12 -4 19 -3 16 2 -5 8 91 53 213 98 25 9 50 20 55 25 8 6 39 16 75 25 3 0
15 6 28 13 12 7 28 10 35 6 6 -4 9 -3 4 1 -9 11 51 37 66 28 6 -3 7 -1 3 5 -4
7 -2 12 3 12 20 0 26 2 61 20 19 10 38 18 43 19 4 0 18 8 31 16 13 9 32 17 42
19 50 10 74 19 74 27 0 5 3 8 8 7 4 -1 40 15 80 35 47 24 81 36 95 33 12 -3
16 -3 9 0 -15 7 37 43 70 49 10 2 25 11 34 20 9 8 20 13 25 10 5 -4 9 -1 9 4
0 6 5 11 12 11 6 0 20 8 31 18 15 12 19 13 13 2 -7 -13 -6 -13 6 0 7 8 37 28
66 43 29 16 76 44 105 63 28 19 58 34 66 34 8 0 11 3 8 7 -7 7 51 38 66 35 4
-1 6 4 5 10 -2 7 3 12 10 10 8 -1 11 2 7 8 -3 5 0 10 8 10 13 0 40 19 81 57
18 17 19 17 13 0 -4 -11 -3 -16 4 -12 6 4 8 13 5 21 -8 20 4 17 33 -8 l26 -23
-22 26 -23 25 36 35 c20 19 58 60 84 91 26 31 51 55 54 52 3 -2 4 -1 2 2 -8
11 16 64 26 58 6 -4 8 -1 6 7 -3 8 1 26 8 41 8 15 17 44 20 65 3 21 8 42 11
47 8 11 184 -1 197 -14 6 -6 15 -10 21 -10 5 0 3 5 -5 10 -10 7 5 9 50 5 91
-7 117 -14 124 -31 4 -10 2 -13 -7 -8 -8 6 -8 3 1 -9 11 -13 11 -27 2 -74 -14
-66 -98 -247 -132 -284 -13 -14 -45 -50 -72 -80 -27 -29 -51 -54 -54 -54 -4 0
-24 -19 -45 -42 -22 -24 -43 -40 -48 -37 -5 3 -9 1 -9 -5 0 -17 -111 -102
-123 -94 -7 3 -9 3 -5 -2 7 -7 -30 -36 -57 -45 -5 -2 -16 -10 -23 -19 -11 -13
-12 -13 -7 -1 4 9 0 7 -9 -4 -8 -10 -20 -15 -26 -11 -6 3 -9 1 -8 -5 2 -7 -6
-17 -17 -23 -11 -7 -22 -14 -25 -17 -10 -10 -50 -30 -60 -30 -6 0 -8 5 -4 12
4 7 3 8 -5 4 -9 -6 -9 -11 0 -22 9 -11 7 -14 -10 -14 -11 0 -21 -5 -21 -11 0
-25 59 7 225 119 141 96 200 144 304 245 165 162 261 342 261 492 0 54 -20 63
-175 75 -77 5 -160 12 -185 14 -25 3 -52 0 -61 -5z m-353 -985 c-5 -13 -3 -14
7 -6 7 6 19 10 27 8 23 -3 100 -55 100 -66 0 -6 7 -10 15 -10 17 0 115 -87
115 -102 0 -5 -5 -6 -12 -2 -7 5 -8 3 -3 -5 5 -9 11 -9 18 -2 7 7 21 -2 46
-27 47 -49 101 -122 101 -140 0 -7 4 -11 9 -8 4 3 14 -13 22 -36 7 -22 19 -47
27 -55 8 -7 15 -24 16 -37 0 -13 4 -22 9 -19 4 2 7 2 7 -1 0 -3 7 -30 15 -61
24 -93 28 -210 11 -300 -9 -44 -17 -89 -19 -100 -5 -41 -62 -165 -74 -160 -7
2 -15 -1 -19 -7 -4 -6 -3 -8 4 -4 6 3 13 2 16 -3 7 -10 -73 -121 -86 -121 -5
0 -6 6 -2 13 5 8 2 8 -9 -2 -18 -14 -22 -22 -9 -20 22 4 20 -4 -7 -34 -17 -17
-31 -36 -31 -41 0 -4 -7 -5 -16 -2 -8 3 -12 2 -9 -4 6 -10 -49 -64 -117 -112
-24 -17 -46 -36 -49 -41 -4 -5 -12 -6 -19 -2 -8 5 -11 4 -7 -2 5 -9 -53 -51
-62 -44 -2 1 -7 -1 -10 -6 -13 -19 -124 -74 -138 -69 -8 3 -11 2 -8 -3 5 -9
-17 -20 -49 -25 -6 -1 -21 -7 -33 -14 -39 -22 -186 -58 -353 -87 -122 -22
-404 -30 -520 -15 -52 6 -103 12 -113 11 -10 0 -61 9 -115 20 -53 11 -104 20
-112 21 -26 1 -268 58 -297 70 -16 6 -39 12 -53 13 -14 1 -31 3 -38 4 -7 0
-10 5 -7 11 3 6 -1 7 -9 4 -9 -3 -32 3 -52 15 -19 12 -32 16 -29 11 4 -6 -9
-4 -27 4 -18 8 -68 26 -110 41 -43 15 -78 31 -78 37 0 5 -4 7 -9 3 -5 -3 -12
-1 -16 5 -4 6 -10 8 -15 5 -12 -8 -71 20 -63 30 5 4 3 5 -3 2 -6 -4 -27 1 -45
10 -19 10 -40 18 -48 19 -25 4 -35 22 -21 38 7 9 16 13 21 10 5 -3 9 0 9 6 0
6 25 22 55 36 30 14 57 29 60 34 3 5 27 20 53 33 86 45 107 57 97 57 -15 0 18
20 33 20 7 0 11 -4 7 -9 -3 -5 -1 -13 5 -16 8 -5 7 -12 -2 -23 -12 -15 -11
-16 5 -3 12 10 15 17 8 24 -7 7 -7 15 2 26 10 12 9 13 -2 6 -10 -6 -12 -4 -6
5 11 18 79 8 225 -35 69 -21 130 -38 135 -39 67 -12 133 -32 128 -39 -3 -6 -2
-7 4 -4 5 3 25 2 44 -3 54 -15 337 -57 414 -61 173 -9 360 1 500 27 77 14 148
26 157 27 9 1 15 4 12 8 -2 4 8 10 22 13 50 13 194 83 186 91 -4 4 0 6 8 3 8
-2 26 6 40 19 14 13 31 21 38 18 7 -3 11 -1 8 4 -6 9 48 61 65 61 5 0 7 5 4
10 -3 6 1 13 9 16 9 3 16 11 16 16 0 6 14 27 30 48 17 21 30 44 30 51 0 12 2
11 9 0 7 -10 9 -8 9 10 0 13 7 42 15 64 35 92 28 215 -17 320 -21 46 -77 138
-88 143 -5 2 -6 8 -2 13 3 5 0 9 -6 9 -6 0 -8 5 -5 10 4 6 3 9 -2 8 -5 -2 -34
20 -64 49 -30 28 -65 61 -79 73 -14 12 -19 18 -11 14 9 -4 12 -3 7 4 -4 6 -12
9 -19 7 -17 -7 -72 41 -55 49 7 3 3 3 -8 1 -12 -3 -28 1 -37 9 -8 8 -17 13
-20 10 -3 -3 -8 -1 -11 5 -4 6 5 13 21 17 15 4 30 10 33 13 3 3 23 15 45 26
22 11 67 36 100 55 142 82 130 77 121 54z"/>
<path d="M4080 2166 c0 -2 8 -10 18 -17 15 -13 16 -12 3 4 -13 16 -21 21 -21
13z"/>
<path d="M3887 2107 c-47 -23 -43 -44 17 -100 23 -21 40 -42 38 -48 -1 -6 2
-8 7 -4 11 6 51 -24 51 -40 0 -5 -4 -4 -9 3 -6 10 -10 10 -21 -3 -11 -13 -10
-14 5 -9 14 6 16 4 10 -6 -6 -9 -4 -11 4 -5 8 4 27 -5 49 -22 32 -26 41 -29
67 -20 46 16 63 51 45 97 -1 3 -2 9 -1 14 1 5 -5 4 -13 -4 -10 -8 -16 -9 -16
-2 0 21 -160 165 -184 167 -6 1 -28 -8 -49 -18z m160 -100 l106 -103 -35 -21
-35 -21 -105 103 -105 103 26 21 c14 11 29 20 34 20 4 1 55 -45 114 -102z"/>
<path d="M4113 1835 c0 -8 4 -12 9 -9 5 3 6 10 3 15 -9 13 -12 11 -12 -6z"/>
<path d="M3984 1759 c-3 -6 -2 -15 3 -20 5 -5 9 -1 9 11 0 23 -2 24 -12 9z"/>
<path d="M4177 1711 c-36 -18 -34 -4 -21 -189 4 -61 12 -105 18 -107 45 -13
87 -12 102 3 14 14 16 32 11 127 -3 60 -11 124 -17 141 -14 39 -47 48 -93 25z
m78 -63 c9 -79 11 -215 3 -223 -4 -4 -24 -4 -45 -1 l-38 7 0 92 c0 51 -3 109
-7 129 -7 40 -2 44 54 47 25 1 27 -2 33 -51z"/>
<path d="M4091 1259 c-19 -16 -32 -32 -28 -35 4 -4 7 -1 7 6 0 7 3 11 6 7 4
-3 -20 -40 -53 -81 -33 -42 -64 -72 -68 -68 -3 4 -5 0 -3 -8 2 -8 -3 -14 -10
-12 -18 3 8 -46 41 -76 21 -20 27 -21 51 -11 14 7 26 16 26 21 0 4 8 8 18 9
10 0 12 3 4 6 -8 3 4 23 34 56 26 29 55 64 64 79 13 22 19 25 30 15 12 -10 12
-9 1 5 -10 13 -10 20 1 37 11 18 9 23 -10 41 -12 12 -31 23 -42 25 -11 2 -23
6 -28 8 -4 3 -22 -8 -41 -24z m109 -30 c0 -22 -171 -240 -188 -238 -4 0 -17
13 -30 30 l-24 29 52 58 c28 31 66 80 83 108 l32 51 37 -16 c21 -9 38 -19 38
-22z"/>
<path d="M4030 1220 c0 -5 5 -10 11 -10 5 0 7 5 4 10 -3 6 -8 10 -11 10 -2 0
-4 -4 -4 -10z"/>
<path d="M3926 1183 c-6 -14 -5 -15 5 -6 7 7 10 15 7 18 -3 3 -9 -2 -12 -12z"/>
<path d="M3924 1036 c1 -8 5 -18 8 -22 4 -3 5 1 4 10 -1 8 -5 18 -8 22 -4 3
-5 -1 -4 -10z"/>
<path d="M1915 980 c3 -5 -8 -22 -25 -38 -18 -19 -28 -36 -24 -46 7 -17 68
-56 90 -56 8 0 41 -13 74 -29 33 -15 70 -27 83 -26 12 1 28 3 35 4 7 0 10 6 7
11 -4 6 1 24 9 41 19 37 4 69 -32 69 -15 0 -21 4 -16 12 4 7 3 8 -4 4 -6 -4
-28 1 -49 9 -59 25 -153 54 -148 45z m135 -61 c47 -16 90 -31 97 -34 9 -3 8
-14 -4 -44 -9 -23 -19 -41 -24 -41 -4 0 -52 18 -106 41 -54 22 -106 43 -115
46 -24 7 -23 12 9 45 17 18 33 26 43 22 8 -3 53 -19 100 -35z"/>
<path d="M3608 943 c7 -3 16 -2 19 1 4 3 -2 6 -13 5 -11 0 -14 -3 -6 -6z"/>
<path d="M3657 888 c-82 -38 -111 -47 -121 -39 -23 19 -49 -32 -41 -79 12 -71
32 -73 160 -19 153 65 180 82 181 111 0 15 -2 25 -5 23 -2 -3 -12 9 -22 25
-11 17 -24 30 -31 29 -7 0 -62 -23 -121 -51z m133 18 c0 -7 7 -19 15 -26 8 -7
15 -17 15 -22 0 -17 -284 -140 -294 -127 -1 2 -7 20 -12 39 l-10 34 101 41
c55 23 114 48 130 57 38 20 55 22 55 4z"/>
<path d="M3650 905 c-14 -8 -20 -14 -14 -15 5 0 19 7 30 15 24 18 16 19 -16 0z"/>
<path d="M2636 891 c-4 -5 3 -7 14 -4 23 6 26 13 6 13 -8 0 -17 -4 -20 -9z"/>
<path d="M1570 850 c0 -5 7 -7 15 -4 8 4 15 8 15 10 0 2 -7 4 -15 4 -8 0 -15
-4 -15 -10z"/>
<path d="M2381 832 c-17 -31 -24 -99 -12 -106 9 -6 182 -44 276 -62 16 -3 31
-7 33 -9 2 -2 12 3 21 12 11 9 18 31 20 63 l2 49 -43 12 c-24 7 -54 13 -68 14
-36 3 -200 34 -210 40 -5 3 -14 -3 -19 -13z m194 -46 c76 -13 129 -28 128 -34
-2 -6 -4 -25 -5 -41 -1 -17 -7 -31 -13 -31 -8 0 -168 33 -278 57 -26 5 -28 9
-23 36 3 16 6 35 6 43 0 10 7 11 28 4 15 -5 86 -20 157 -34z"/>
<path d="M1927 819 c7 -7 15 -10 18 -7 3 3 -2 9 -12 12 -14 6 -15 5 -6 -5z"/>
<path d="M1994 802 c3 -5 0 -13 -6 -15 -9 -4 -10 -6 -1 -6 17 -1 25 16 12 25
-7 4 -9 3 -5 -4z"/>
<path d="M2945 760 c-14 -16 -17 -43 -8 -94 l5 -29 132 6 c146 7 183 12 209
32 14 10 16 17 8 32 -5 10 -12 30 -16 46 l-5 27 -156 -2 c-124 -2 -158 -6
-169 -18z m319 -39 c3 -19 4 -36 3 -38 -5 -4 -220 -23 -269 -23 l-48 0 0 48 0
47 154 0 154 1 6 -35z"/>
<path d="M3246 622 c-2 -4 4 -8 14 -8 10 0 16 4 14 8 -3 4 -9 8 -14 8 -5 0
-11 -4 -14 -8z"/>
<path d="M3825 2651 c-3 -5 -2 -12 3 -15 5 -3 9 1 9 9 0 17 -3 19 -12 6z"/>
<path d="M3656 2561 c-3 -5 1 -11 9 -14 9 -4 12 -1 8 9 -6 16 -10 17 -17 5z"/>
<path d="M3515 2460 c-3 -6 1 -7 9 -4 18 7 21 14 7 14 -6 0 -13 -4 -16 -10z"/>
<path d="M2284 2426 c-14 -36 -80 -386 -73 -386 10 0 96 34 153 60 23 10 95
41 161 69 120 51 155 77 155 112 0 23 -18 33 -148 76 -59 19 -136 46 -171 59
-75 28 -70 28 -77 10z m91 -38 c33 -11 88 -31 123 -43 34 -12 60 -23 58 -26
-2 -2 11 -4 30 -5 21 0 40 -8 50 -20 8 -10 12 -13 8 -5 -5 10 -3 12 5 7 9 -6
9 -11 -1 -24 -10 -12 -10 -14 0 -8 6 4 12 3 12 -3 0 -6 -12 -14 -27 -17 -16
-4 -30 -10 -33 -13 -3 -4 -34 -19 -70 -35 -36 -15 -99 -45 -142 -66 -42 -21
-79 -36 -83 -32 -3 3 -9 1 -13 -5 -4 -7 -20 -14 -36 -17 -22 -4 -27 -2 -22 11
12 31 56 261 56 292 0 37 7 38 85 9z"/>
<path d="M2587 2299 c7 -7 15 -10 18 -7 3 3 -2 9 -12 12 -14 6 -15 5 -6 -5z"/>
<path d="M2166 2207 c3 -10 9 -15 12 -12 3 3 0 11 -7 18 -10 9 -11 8 -5 -6z"/>
<path d="M3035 1940 c-3 -6 1 -7 9 -4 18 7 21 14 7 14 -6 0 -13 -4 -16 -10z"/>
<path d="M2120 1840 c-8 -5 -12 -12 -9 -15 4 -3 12 1 19 10 14 17 11 19 -10 5z"/>
<path d="M2139 1823 c-13 -16 -12 -17 4 -4 9 7 17 15 17 17 0 8 -8 3 -21 -13z"/>
<path d="M2070 1826 c0 -2 7 -7 16 -10 8 -3 12 -2 9 4 -6 10 -25 14 -25 6z"/>
<path d="M1980 1750 c-9 -6 -10 -10 -3 -10 6 0 15 5 18 10 8 12 4 12 -15 0z"/>
<path d="M2450 1716 c0 -2 7 -7 16 -10 8 -3 12 -2 9 4 -6 10 -25 14 -25 6z"/>
<path d="M2171 1556 c-18 -21 7 -33 25 -12 8 9 9 11 2 6 -19 -15 -32 -12 -18
5 7 8 10 15 7 15 -2 0 -10 -6 -16 -14z"/>
<path d="M1701 1514 c0 -11 3 -14 6 -6 3 7 2 16 -1 19 -3 4 -6 -2 -5 -13z"/>
<path d="M2091 1477 c-8 -10 -7 -14 2 -14 8 0 14 6 14 14 0 7 -1 13 -2 13 -2
0 -8 -6 -14 -13z"/>
<path d="M1496 1183 c-6 -14 -5 -15 5 -6 7 7 10 15 7 18 -3 3 -9 -2 -12 -12z"/>
<path d="M1746 1062 c-3 -5 1 -9 9 -9 8 0 12 4 9 9 -3 4 -7 8 -9 8 -2 0 -6 -4
-9 -8z"/>
</g>
</svg>
